<svg width="50" height="50" viewBox="0 0 50 50" fill="none" xmlns="http://www.w3.org/2000/svg">
<path d="M45.543 18.3727C46.4612 17.4635 47.1899 16.381 47.6868 15.1882C48.1836 13.9953 48.4388 12.7157 48.4375 11.4234C48.4375 6.00703 44.0398 1.61719 38.618 1.61641H38.6141C35.8953 1.61641 33.432 2.72109 31.6547 4.50547L37.4492 10.2906L36.1437 11.6102C32.882 9.3694 29.0166 8.17229 25.0594 8.17734C21.1022 8.17206 17.2368 9.3689 13.975 11.6094L12.5758 10.1945L18.2367 4.46953C17.3357 3.54884 16.2598 2.81742 15.0722 2.31822C13.8847 1.81901 12.6093 1.56208 11.3211 1.5625C5.93125 1.5625 1.5625 5.98047 1.5625 11.4305C1.5625 14.1648 2.66094 16.6391 4.43828 18.4258L10.1586 12.6406L11.3109 13.8055C9.42939 15.6467 7.93526 17.8457 6.91649 20.2732C5.89773 22.7006 5.37494 25.3073 5.37891 27.9398C5.37891 31.8625 6.52187 35.5156 8.48437 38.5906L6.83672 48.4375H8.29453C9.20547 48.4375 9.54219 47.368 10.1344 46.0375C10.6609 44.8434 11.1823 43.647 11.6984 42.4484C15.207 45.7109 19.9 47.7055 25.0594 47.7055C30.218 47.7055 34.9102 45.7094 38.4203 42.4484C38.9364 43.6472 39.458 44.8436 39.9852 46.0375C40.5781 47.368 40.9133 48.4375 41.8242 48.4375H43.282L41.6367 38.5883C43.6679 35.4088 44.7451 31.7136 44.7406 27.9406C44.7445 25.3082 44.2216 22.7016 43.2029 20.2744C42.1841 17.8471 40.69 15.6482 38.8086 13.807L39.8836 12.7211L45.543 18.3727ZM40.3672 27.9406C40.3672 36.4305 33.5133 43.3141 25.0594 43.3141C16.6055 43.3141 9.75234 36.4305 9.75234 27.9406C9.75234 19.4523 16.6047 12.5695 25.0594 12.5695C33.5125 12.5695 40.3672 19.4516 40.3672 27.9406Z" fill="black"/>
<path d="M26.5168 25.4205V16.9619H23.602V25.4205C23.1597 25.6766 22.7924 26.0441 22.5366 26.4865C22.2808 26.9289 22.1455 27.4306 22.1441 27.9416C22.1441 28.5908 22.3605 29.1861 22.716 29.6713L16.0879 36.3729L16.9941 37.2916L23.6949 30.5158C24.1027 30.7346 24.5637 30.8705 25.0598 30.8705C26.1363 30.8705 27.0652 30.2783 27.5715 29.4064H32.3488V26.4791H27.5715C27.3188 26.0399 26.9551 25.6748 26.5168 25.4205Z" fill="black"/>
</svg>
